<?xml version="1.0" encoding="UTF-8"?>
<!DOCTYPE svg PUBLIC "-//W3C//DTD SVG 1.1//EN" "http://www.w3.org/Graphics/SVG/1.1/DTD/svg11.dtd">
<svg xmlns="http://www.w3.org/2000/svg" version="1.1" width="500px" height="500px" style="shape-rendering:geometricPrecision; text-rendering:geometricPrecision; image-rendering:optimizeQuality; fill-rule:evenodd; clip-rule:evenodd" xmlns:xlink="http://www.w3.org/1999/xlink">
<g><path style="opacity:0.934" fill="#0049ad" d="M 357.5,150.5 C 362.938,150.479 367.938,151.979 372.5,155C 375.183,156.845 376.85,159.345 377.5,162.5C 372.842,190.434 368.675,218.434 365,246.5C 361.15,265.251 356.983,283.918 352.5,302.5C 345.529,302.592 340.029,299.592 336,293.5C 335.833,291.667 335.667,289.833 335.5,288C 339.44,259.082 343.606,230.249 348,201.5C 342.537,215.1 335.537,227.767 327,239.5C 319.841,253.821 312.175,267.821 304,281.5C 300.732,286.384 297.232,291.051 293.5,295.5C 286.915,292.74 281.749,288.407 278,282.5C 275.333,257.832 272.667,233.166 270,208.5C 258.51,243.811 246.176,278.811 233,313.5C 232.218,316.076 230.718,318.076 228.5,319.5C 221.623,317.11 216.957,312.444 214.5,305.5C 220.629,283.614 227.462,261.947 235,240.5C 239.739,229.883 243.406,218.883 246,207.5C 251.866,192.901 257.533,178.234 263,163.5C 271.744,160.578 280.078,161.578 288,166.5C 287.932,177.347 289.265,188.014 292,198.5C 292.11,216.599 293.444,234.599 296,252.5C 311.92,224.328 327.587,195.994 343,167.5C 345.583,164.003 347.916,160.336 350,156.5C 352.114,153.879 354.614,151.879 357.5,150.5 Z M 351.5,212.5 C 353.088,213.635 353.421,214.969 352.5,216.5C 350.3,215.675 349.966,214.342 351.5,212.5 Z M 358.5,220.5 C 356.088,220.306 355.088,218.973 355.5,216.5C 356.5,216.5 357.5,216.5 358.5,216.5C 358.5,217.833 358.5,219.167 358.5,220.5 Z M 239.5,258.5 C 240.713,259.497 240.546,260.497 239,261.5C 237.205,260.281 237.372,259.281 239.5,258.5 Z M 284.5,269.5 C 286.355,269.272 287.188,269.939 287,271.5C 286.333,270.167 285.667,270.167 285,271.5C 284.536,270.906 284.369,270.239 284.5,269.5 Z M 236.5,274.5 C 237.797,275.849 237.63,277.182 236,278.5C 234.413,277.154 234.58,275.821 236.5,274.5 Z M 229.5,278.5 C 231.337,278.639 231.67,279.306 230.5,280.5C 229.702,280.043 229.369,279.376 229.5,278.5 Z M 230.5,284.5 C 232.085,285.002 232.585,286.002 232,287.5C 230.961,286.756 230.461,285.756 230.5,284.5 Z"/></g>
<g><path style="opacity:0.9" fill="#0049ad" d="M 212.5,167.5 C 216.536,168.02 219.703,170.02 222,173.5C 224.5,177.333 227,181.167 229.5,185C 216.767,187.51 204.1,190.343 191.5,193.5C 188.661,211.539 185.494,229.539 182,247.5C 181.667,252.167 181.333,256.833 181,261.5C 177.043,283.7 172.21,305.7 166.5,327.5C 158.128,326.31 152.128,321.81 148.5,314C 154.363,275.856 160.029,237.689 165.5,199.5C 161.13,198.83 156.797,199.33 152.5,201C 137.592,203.904 128.259,198.071 124.5,183.5C 154.336,180.307 183.67,174.973 212.5,167.5 Z M 189.5,183.5 C 187.46,184.475 187.127,183.808 188.5,181.5C 189.298,181.957 189.631,182.624 189.5,183.5 Z M 166.5,182.5 C 168.337,182.639 168.67,183.306 167.5,184.5C 166.702,184.043 166.369,183.376 166.5,182.5 Z M 161.5,186.5 C 164.001,186.511 164.168,187.178 162,188.5C 161.536,187.906 161.369,187.239 161.5,186.5 Z M 171.5,186.5 C 176.505,186.443 176.672,187.11 172,188.5C 170.316,188.317 170.15,187.65 171.5,186.5 Z M 172.5,219.5 C 174.404,221.044 175.238,223.044 175,225.5C 173.337,223.842 172.504,221.842 172.5,219.5 Z M 169.5,229.5 C 167.396,229.799 165.396,229.466 163.5,228.5C 165.692,227.561 167.692,227.895 169.5,229.5 Z M 169.5,229.5 C 171.337,229.639 171.67,230.306 170.5,231.5C 169.702,231.043 169.369,230.376 169.5,229.5 Z M 165.5,232.5 C 165.69,235.725 167.023,238.892 169.5,242C 168.667,242.833 167.833,243.667 167,244.5C 166.167,243 165,241.833 163.5,241C 164.308,240.692 164.975,240.192 165.5,239.5C 164.947,237.273 164.947,234.939 165.5,232.5 Z M 170.5,241.5 C 171.289,241.783 171.956,242.283 172.5,243C 171.184,243.528 170.517,243.028 170.5,241.5 Z M 164.5,248.5 C 166.465,248.948 166.798,249.948 165.5,251.5C 164.614,250.675 164.281,249.675 164.5,248.5 Z M 171.5,255.5 C 167.971,254.97 167.638,253.637 170.5,251.5C 171.429,252.689 171.762,254.022 171.5,255.5 Z"/></g>
<g><path style="opacity:0.907" fill="#eec132" d="M 107.5,228.5 C 118.753,227.27 126.253,231.936 130,242.5C 132.41,253.434 132.91,264.434 131.5,275.5C 116.481,277.979 101.481,280.646 86.5,283.5C 85.3527,283.818 84.5194,284.484 84,285.5C 82.9708,295.965 84.6375,305.965 89,315.5C 91.332,318.791 94.1653,319.291 97.5,317C 104.412,310.011 109.412,301.844 112.5,292.5C 118.398,291.043 124.398,290.377 130.5,290.5C 125.909,309.251 114.576,321.751 96.5,328C 87.0303,330.07 79.5303,327.236 74,319.5C 63.5574,300.296 62.8907,280.629 72,260.5C 79.3188,244.627 91.1521,233.96 107.5,228.5 Z M 108.5,238.5 C 111.415,238.913 113.248,240.579 114,243.5C 115.33,251.773 115.83,260.107 115.5,268.5C 105.55,270.592 95.5499,272.092 85.5,273C 88.1021,265.097 90.9354,257.264 94,249.5C 97.8568,244.468 102.69,240.801 108.5,238.5 Z M 71.5,280.5 C 74.0009,280.511 74.1676,281.178 72,282.5C 71.5357,281.906 71.369,281.239 71.5,280.5 Z"/></g>
<g><path style="opacity:0.853" fill="#eec132" d="M 475.5,352.5 C 462.094,361.568 447.094,366.068 430.5,366C 434.155,364.794 437.822,363.461 441.5,362C 438.096,361.779 434.762,362.279 431.5,363.5C 427.153,362.111 422.82,361.778 418.5,362.5C 418.5,361.5 418.5,360.5 418.5,359.5C 413.605,360.514 408.771,360.514 404,359.5C 396.006,361.854 387.839,363.521 379.5,364.5C 378.914,364.291 378.414,363.957 378,363.5C 330.796,370.795 283.296,379.628 235.5,390C 199.244,398.854 163.411,408.02 128,417.5C 126.743,417.15 126.409,416.483 127,415.5C 128.816,414.671 130.649,413.837 132.5,413C 131.338,412.173 130.171,411.34 129,410.5C 126.256,411.303 123.589,412.303 121,413.5C 118.127,412.586 117.96,411.086 120.5,409C 122.087,408.138 123.754,407.471 125.5,407C 124.167,406.333 122.833,405.667 121.5,405C 123.167,404 124.833,403 126.5,402C 125.167,401.333 123.833,400.667 122.5,400C 146.469,390.744 170.469,381.744 194.5,373C 206.355,370.296 218.021,366.963 229.5,363C 226.833,362.333 224.167,362.333 221.5,363C 204.687,367.873 187.854,371.706 171,374.5C 168.482,376.464 165.816,377.13 163,376.5C 160.142,379.35 156.975,379.85 153.5,378C 154.5,377.667 155.5,377.333 156.5,377C 154.939,376.682 153.772,375.849 153,374.5C 148.161,375.415 147.661,377.082 151.5,379.5C 141.496,383.612 131.163,386.945 120.5,389.5C 119.833,389.333 119.167,389.167 118.5,389C 119.641,388.259 119.641,387.425 118.5,386.5C 114.605,385.73 110.938,386.563 107.5,389C 110.574,392.109 109.907,393.942 105.5,394.5C 104.353,394.182 103.519,393.516 103,392.5C 102.517,393.448 102.351,394.448 102.5,395.5C 95.6663,397.388 88.833,399.388 82,401.5C 80.1082,398.61 79.2749,398.944 79.5,402.5C 71.6105,404.879 63.6105,406.879 55.5,408.5C 55.33,407.178 55.6634,406.011 56.5,405C 56.1667,404.833 55.8333,404.667 55.5,404.5C 54.7492,405.376 54.2492,406.376 54,407.5C 52.47,406.08 50.6367,405.08 48.5,404.5C 50.1965,403.636 51.3632,402.303 52,400.5C 54.1838,402.871 56.3505,402.704 58.5,400C 57.6634,398.989 57.33,397.822 57.5,396.5C 124.898,371.565 193.898,352.065 264.5,338C 308.731,330.467 353.064,323.634 397.5,317.5C 400.226,317.344 402.893,317.844 405.5,319C 405.167,319.333 404.833,319.667 404.5,320C 405.308,320.308 405.975,320.808 406.5,321.5C 404.196,323.869 401.529,325.703 398.5,327C 399,327.5 399.5,328 400,328.5C 401.356,327.62 402.856,327.286 404.5,327.5C 404.52,329.143 403.853,330.476 402.5,331.5C 392.12,337.089 381.12,341.255 369.5,344C 395.582,342.296 421.582,340.129 447.5,337.5C 455.659,337.41 463.993,337.577 472.5,338C 476.74,337.47 479.074,339.303 479.5,343.5C 479.081,344.672 478.415,345.672 477.5,346.5C 474.827,347.501 472.493,349.001 470.5,351C 472.025,352.009 473.692,352.509 475.5,352.5 Z M 284.5,340.5 C 284.56,339.957 284.893,339.624 285.5,339.5C 286.287,340.242 286.953,341.075 287.5,342C 285.833,342.667 284.167,342.667 282.5,342C 283.044,341.283 283.711,340.783 284.5,340.5 Z M 246.5,347.5 C 248.527,347.338 250.527,347.505 252.5,348C 247.692,349.893 242.692,350.727 237.5,350.5C 238.952,349.698 240.618,349.198 242.5,349C 243.634,347.984 243.301,347.317 241.5,347C 243.135,346.46 244.468,346.96 245.5,348.5C 246.107,348.376 246.44,348.043 246.5,347.5 Z M 223.5,352.5 C 225.288,352.215 226.955,352.548 228.5,353.5C 224.272,355.143 219.938,355.977 215.5,356C 218.309,354.907 220.976,353.74 223.5,352.5 Z M 254.5,352.5 C 255.756,352.461 256.756,352.961 257.5,354C 256.167,354.667 254.833,354.667 253.5,354C 254.056,353.617 254.389,353.117 254.5,352.5 Z M 226.5,358.5 C 227.043,358.56 227.376,358.893 227.5,359.5C 225.577,360.648 223.577,361.148 221.5,361C 223.175,360.015 224.842,359.181 226.5,358.5 Z M 372.5,360.5 C 377.563,360.769 377.397,361.435 372,362.5C 371.167,362.333 370.333,362.167 369.5,362C 370.737,361.768 371.737,361.268 372.5,360.5 Z M 366.5,361.5 C 368.379,361.393 368.712,361.893 367.5,363C 361.807,363.91 356.14,364.576 350.5,365C 355.777,363.247 361.11,362.08 366.5,361.5 Z M 172.5,363.5 C 174.87,363.983 175.537,365.149 174.5,367C 171.947,367.851 169.614,367.518 167.5,366C 168.766,365.691 169.933,365.191 171,364.5C 172.107,365.712 172.607,365.379 172.5,363.5 Z M 296.5,366.5 C 297.531,365.751 298.698,365.085 300,364.5C 300.167,364.833 300.333,365.167 300.5,365.5C 299.311,366.429 297.978,366.762 296.5,366.5 Z M 329.5,366.5 C 343.844,366.362 343.677,367.362 329,369.5C 328.167,369.333 327.333,369.167 326.5,369C 327.571,368.148 328.571,367.315 329.5,366.5 Z M 171.5,369.5 C 174.001,369.511 174.168,370.178 172,371.5C 171.536,370.906 171.369,370.239 171.5,369.5 Z M 273.5,369.5 C 275.199,369.34 276.866,369.506 278.5,370C 275.621,371.471 272.621,372.138 269.5,372C 270.858,371.066 272.192,370.232 273.5,369.5 Z M 315.5,369.5 C 316.958,369.579 318.292,370.079 319.5,371C 317.537,371.844 316.204,371.344 315.5,369.5 Z M 144.5,371.5 C 146.356,371.437 148.022,371.77 149.5,372.5C 147.724,374.447 145.724,374.78 143.5,373.5C 143.863,372.817 144.196,372.15 144.5,371.5 Z M 272.5,377.5 C 274.337,377.639 274.67,378.306 273.5,379.5C 272.702,379.043 272.369,378.376 272.5,377.5 Z M 118.5,381.5 C 120.463,380.465 122.463,379.465 124.5,378.5C 125.167,378.833 125.833,379.167 126.5,379.5C 124.067,381.054 121.4,381.72 118.5,381.5 Z M 265.5,379.5 C 266.251,378.427 267.251,378.26 268.5,379C 267.648,380.728 266.648,380.895 265.5,379.5 Z M 118.5,381.5 C 115.563,383.589 112.23,385.089 108.5,386C 107.056,386.781 105.723,386.614 104.5,385.5C 109.114,383.061 113.78,381.728 118.5,381.5 Z M 140.5,380.5 C 142.379,380.393 142.712,380.893 141.5,382C 140.167,382.667 138.833,382.667 137.5,382C 138.737,381.768 139.737,381.268 140.5,380.5 Z M 79.5,392.5 C 80.3764,392.369 81.0431,392.702 81.5,393.5C 79.9255,394.631 78.2588,394.798 76.5,394C 77.7375,393.768 78.7375,393.268 79.5,392.5 Z M 206.5,392.5 C 207.043,392.56 207.376,392.893 207.5,393.5C 206.635,394.583 205.635,394.749 204.5,394C 205.416,393.722 206.082,393.222 206.5,392.5 Z M 200.5,394.5 C 201.497,393.287 202.497,393.454 203.5,395C 202.423,395.47 201.423,395.303 200.5,394.5 Z M 196.5,394.5 C 197.675,394.281 198.675,394.614 199.5,395.5C 197.08,397.219 194.747,397.386 192.5,396C 194.058,395.79 195.391,395.29 196.5,394.5 Z M 186.5,397.5 C 189.001,397.511 189.168,398.178 187,399.5C 186.536,398.906 186.369,398.239 186.5,397.5 Z"/></g>
<g><path style="opacity:0.055" fill="#eec132" d="M 473.5,349.5 C 474.833,350.167 474.833,350.167 473.5,349.5 Z"/></g>
<g><path style="opacity:0.238" fill="#eec132" d="M 475.5,352.5 C 475.517,350.972 476.184,350.472 477.5,351C 476.956,351.717 476.289,352.217 475.5,352.5 Z"/></g>
<g><path style="opacity:0.275" fill="#eec132" d="M 426.5,366.5 C 427.251,365.427 428.251,365.26 429.5,366C 428.552,366.483 427.552,366.649 426.5,366.5 Z"/></g>
<g><path style="opacity:0.09" fill="#eec132" d="M 125.5,412.5 C 126.833,413.167 126.833,413.167 125.5,412.5 Z"/></g>
<g><path style="opacity:0.047" fill="#eec132" d="M 123.5,413.5 C 124.525,413.897 124.692,414.563 124,415.5C 123.536,414.906 123.369,414.239 123.5,413.5 Z"/></g>
<g><path style="opacity:0.09" fill="#eec132" d="M 120.5,414.5 C 121.833,415.167 121.833,415.167 120.5,414.5 Z"/></g>
</svg>
